<?xml version="1.0" encoding="UTF-8" standalone="no"?>
<svg
   xmlns:dc="http://purl.org/dc/elements/1.1/"
   xmlns:cc="http://creativecommons.org/ns#"
   xmlns:rdf="http://www.w3.org/1999/02/22-rdf-syntax-ns#"
   xmlns:svg="http://www.w3.org/2000/svg"
   xmlns="http://www.w3.org/2000/svg"
   version="1.1"
   id="svg2"
   viewBox="0 0 744.09448819 1052.3622047"
   height="297mm"
   width="210mm">
  <defs
     id="defs4" />
  <metadata
     id="metadata7">
    <rdf:RDF>
      <cc:Work
         rdf:about="">
        <dc:format>image/svg+xml</dc:format>
        <dc:type
           rdf:resource="http://purl.org/dc/dcmitype/StillImage" />
        <dc:title></dc:title>
      </cc:Work>
    </rdf:RDF>
  </metadata>
  <g
     id="layer1">
    <g
       id="text3336"
       style="font-style:normal;font-weight:normal;font-size:40px;line-height:125%;font-family:sans-serif;letter-spacing:0px;word-spacing:0px;fill:#000000;fill-opacity:1;stroke:none;stroke-width:1px;stroke-linecap:butt;stroke-linejoin:miter;stroke-opacity:1">
      <path
         id="path3379"
         style="font-style:normal;font-variant:normal;font-weight:normal;font-stretch:normal;font-size:112.5px;font-family:graffonti;-inkscape-font-specification:graffonti"
         d="m 85.275008,378.39436 q 9.225,-3.375 19.237502,-10.0125 3.0375,-1.4625 13.05,-6.6375 3.6,-1.9125 12.9375,-4.6125 1.0125,-0.3375 8.325,-2.025 0.9,-0.225 3.2625,-0.5625 4.6125,-0.675 5.625,-0.45 0,0.45 -1.35,1.6875 -1.9125,1.8 -1.9125,3.2625 6.6375,0.675 18.45,4.1625 6.1875,1.9125 18.7875,5.7375 0.7875,0 2.3625,0.45 1.575,0.3375 2.3625,0.3375 0.7875,0 2.3625,0.1125 1.575,0.1125 2.3625,0.1125 0.9,0 2.5875,0.1125 1.8,0.1125 2.7,0.1125 1.575,0 4.6125,1.2375 -5.9625,9.675 -18.45,17.4375 -1.6875,1.0125 -5.5125,2.1375 -3.7125,1.125 -5.2875,2.025 -0.7875,0.45 -2.5875,2.475 -0.5625,1.4625 -0.5625,2.25 0.225,2.1375 1.35,2.925 l 0.675,-4.05 q 0.9,-2.25 1.575,-2.25 0.225,0.1125 0.3375,0.225 1.4625,2.7 5.2875,10.0125 6.3,12.15 6.3,13.95 0,4.8375 -15.6375,18.1125 -13.05,11.025 -18.3375,11.025 -1.9125,0 -3.15,-8.55 l -2.7,-18.1125 -5.625,5.9625 q 0,0.45 -0.3375,0.45 -1.0125,0 -5.625,-5.9625 -0.225,0 -0.45,0.225 -1.2375,11.5875 -2.25,15.6375 -2.8125,11.25 -8.775,11.25 -4.725,0 -18,-9.3375 -14.175002,-9.9 -14.175002,-15.6375 0,-2.025 4.5,-12.6 4.95,-11.5875 8.775002,-12.0375 2.1375,0 2.5875,0.9 -0.1125,2.925 0.5625,4.5 0.675,-0.3375 1.0125,-2.7 0.3375,-2.025 -0.225,-3.375 l -0.7875,-1.9125 q -1.0125,-2.475 -4.275,-1.8 -0.3375,0.1125 -1.2375,0.45 -0.450002,0.3375 -0.900002,0.5625 -0.225,0 -2.1375,-1.9125 -2.7,-2.7 -5.7375,-4.8375 -8.55,-5.9625 -8.55,-7.9875 l 2.5875,-2.475 z m 52.762502,40.05 q 1.575,-1.6875 4.5,-10.2375 2.5875,-7.65 3.6,-7.65 0.5625,0 0.7875,0.3375 l 1.9125,22.05 q 0.5625,6.525 1.0125,9.9 0.7875,5.85 1.8,9.675 7.2,-2.3625 15.3,-9.45 9.7875,-8.55 14.4,-15.3 l -8.55,-17.8875 q -0.45,1.4625 -1.4625,5.5125 -1.2375,3.375 -4.5,4.05 -1.0125,-0.45 -2.7,-2.475 -0.9,-2.25 -0.9,-3.2625 0,-10.6875 4.725,-13.6125 10.8,-3.825 15.1875,-6.4125 9.1125,-5.2875 13.05,-11.25 -9.9,0.7875 -11.8125,0.7875 -5.85,0 -18.675,-5.2875 -12.7125,-5.2875 -18.5625,-5.2875 -2.7,0 -2.025,-0.1125 -1.125,0.225 -2.025,0.225 -0.1125,0.9 -1.125,3.375 -0.9,2.3625 -0.9,2.925 0.675,5.625 1.0125,12.6 0.45,8.55 -3.4875,13.8375 l -1.125,0 q -2.3625,-13.3875 -2.3625,-15.3 0,-5.175 2.7,-13.05 l 2.925,-8.55 q -8.2125,1.4625 -17.8875,4.95 -6.75,2.475 -9.5625,4.275 l -12.7125,8.325 q -6.075002,3.9375 -11.812502,6.075 1.35,2.1375 4.8375,4.95 4.3875,3.6 6.750002,3.6 l 3.2625,0 q 2.25,0 4.8375,5.2875 2.25,4.6125 2.25,7.3125 0,5.175 0.1125,3.6 -0.225,3.375 -2.5875,3.375 -5.2875,0 -5.2875,-4.5 l 0,-3.4875 q -1.0125,0 -2.8125,1.8 l -4.387502,10.125 q -1.9125,4.3875 -2.5875,10.2375 20.475002,20.025 26.887502,20.025 l 1.9125,0 q 4.275,0 5.9625,-11.475 1.4625,-9.9 1.4625,-22.275 0,-4.6125 -0.225,-7.65 0.45,-1.6875 2.1375,-1.6875 l 6.75,16.9875 z" />
      <path
         id="path3381"
         style="font-style:normal;font-variant:normal;font-weight:normal;font-stretch:normal;font-size:112.5px;font-family:graffonti;-inkscape-font-specification:graffonti"
         d="m 236.44512,396.05686 -1.8,-4.3875 q -1.6875,-4.05 -7.65,-12.0375 -0.675,-1.0125 -3.6,-3.0375 -2.8125,-2.025 -3.4875,-1.9125 1.575,6.3 2.3625,9.3375 1.35,10.575 1.2375,11.025 l 12.9375,1.0125 z m 27.1125,30.0375 q -4.05,7.425 -6.3,10.575 -3.375,4.8375 -4.6125,6.525 -1.125,1.6875 -2.925,3.6 -2.8125,2.925 -3.9375,2.925 0.1125,0 0.1125,-0.45 -3.7125,-3.15 -5.5125,-4.5 -4.95,-5.7375 -6.975,-8.1 l -4.275,-4.8375 q -1.0125,-0.7875 -1.0125,-1.4625 0,-0.9 1.8,-1.9125 4.5,-2.475 4.5,-6.075 l 0,-1.4625 q -0.225,-0.5625 -3.15,-0.5625 l -3.7125,0 0,-4.275 q 0.9,-4.05 1.575,-4.3875 0.675,-0.3375 3.375,0.225 2.7,0.45 3.2625,1.0125 2.1375,4.8375 4.8375,12.9375 0.5625,-1.125 0.5625,-1.6875 0,-0.675 -0.225,-1.9125 -0.1125,-1.2375 -0.1125,-1.6875 l -0.225,-3.6 -0.1125,-2.1375 q -0.1125,-2.025 -0.1125,-2.8125 l -0.1125,-1.8 q -0.1125,-1.8 -0.1125,-1.2375 -2.8125,-1.9125 -9.675,-1.6875 -0.7875,0 -1.2375,0 l -1.35,0 q -1.2375,0 -1.8,1.6875 -2.25,6.525 -2.25,10.9125 0,0.45 1.0125,3.15 4.275,0.225 6.4125,0.1125 -1.9125,4.8375 -20.7,12.0375 -13.5,5.175 -14.7375,5.5125 -4.8375,1.35 -8.55,1.35 -6.6375,0 -6.975,-0.225 1.2375,-1.35 2.475,-2.475 0.675,0 9.225,-7.875 2.925,-2.7 7.7625,-9 4.95,-6.4125 6.4125,-9.5625 -0.225,-1.9125 -0.5625,-2.3625 -4.1625,-0.3375 -12.6,4.3875 -0.3375,0.3375 -2.25,1.0125 -1.8,0.675 -2.25,0.5625 -0.1125,0 -0.225,-0.225 0,-0.45 0.7875,-1.6875 3.825,-5.9625 6.075,-8.55 7.7625,-9 11.3625,-9.9 l 4.275,-1.0125 q 1.35,-1.2375 1.125,-3.15 l -1.125,-10.125 q -3.0375,-10.4625 -5.9625,-13.5 -5.7375,-5.9625 -9.225,-7.0875 l -1.9125,-0.9 q 9,-2.1375 14.7375,-2.1375 9.5625,0 16.875,4.05 5.625,3.15 12.6,11.025 3.9375,4.5 9.1125,20.8125 4.95,15.6375 4.95,28.35 0,1.575 -0.1125,2.925 0.7875,-0.225 2.025,-3.825 0.5625,-1.4625 1.4625,-4.725 1.125,-2.25 3.375,-2.7 0.225,-0.1125 3.7125,-0.675 0.7875,-0.1125 3.375,-0.9 2.1375,-0.675 3.2625,-0.675 0.45,0 0.5625,0.1125 l -6.075,14.0625 z m -45.9,-18.9 q -0.45,-0.45 -0.7875,-0.45 -0.9,0 -1.125,3.2625 -0.3375,6.525 1.8,9.7875 0.675,0.9 3.375,2.925 -0.3375,-1.8 -0.5625,-2.7 -2.025,-7.875 -1.35,-11.3625 l -1.35,-1.4625 z" />
      <path
         id="path3383"
         style="font-style:normal;font-variant:normal;font-weight:normal;font-stretch:normal;font-size:112.5px;font-family:graffonti;-inkscape-font-specification:graffonti"
         d="m 359.2002,417.88186 q -5.0625,-11.475 -5.4,-11.925 -4.5,-9.9 -16.2,-9.9 -1.0125,0 -4.05,-0.1125 -3.0375,-0.1125 -5.175,-0.1125 l -14.9625,0 q -0.675,0 -4.3875,-0.225 -4.1625,-0.225 -6.3,0 0,0.225 -0.1125,1.4625 0,1.125 0.9,1.575 2.25,1.0125 6.4125,3.9375 l 0,1.8 q -1.0125,1.35 -2.1375,1.35 -12.15,0 -12.15,-9.7875 0,-4.5 4.6125,-7.3125 2.25,-1.35 9.45,-5.175 5.5125,-2.925 10.575,-7.9875 l 0.675,0.7875 0,1.8 q -2.5875,3.6 -6.75,9.9 l 0,1.8 q 0.5625,0.3375 2.475,0.3375 1.0125,0 2.925,-0.1125 2.025,-0.225 3.0375,-0.225 4.8375,0 7.65,-3.375 4.1625,-5.0625 4.6125,-5.4 8.55,-6.75 15.525,-10.0125 1.4625,-0.45 4.95,-3.2625 3.4875,-2.925 5.625,-3.7125 -5.0625,-4.05 -10.575,-4.05 -24.075,0 -32.9625,2.3625 l -17.6625,4.725 q -7.2,1.9125 -18.45,1.9125 -1.4625,0 -4.725,-1.0125 -0.9,-0.3375 -3.7125,-1.35 -2.3625,-1.0125 -2.8125,-1.0125 0,1.125 0.675,4.1625 0.675,3.0375 1.125,3.6 0.1125,0.675 3.6,4.275 6.1875,6.4125 9.3375,9.9 l -7.2,10.2375 q -7.3125,10.35 -7.3125,12.6 0,0.45 0.225,0.675 0.675,3.375 2.1375,4.05 1.575,1.575 6.1875,2.3625 2.8125,0.45 6.1875,1.35 15.525,4.05 31.6125,12.375 6.525,3.375 11.925,9.1125 l 11.1375,11.8125 q 0.7875,0.225 1.4625,0.45 1.35,0 1.575,-0.9 0.5625,-2.025 0.5625,-4.8375 0,-8.325 -2.925,-18.675 -2.3625,-8.55 -7.9875,-17.1 0.225,-0.5625 2.1375,-1.35 0.5625,-0.225 2.475,-0.675 -0.7875,0.1125 3.2625,0.1125 3.2625,0 6.6375,2.7 l 10.2375,8.325 1.4625,0 0.5625,-2.25 z" />
      <path
         id="path3385"
         style="font-style:normal;font-variant:normal;font-weight:normal;font-stretch:normal;font-size:112.5px;font-family:graffonti;-inkscape-font-specification:graffonti"
         d="m 417.06036,396.05686 -1.8,-4.3875 q -1.6875,-4.05 -7.65,-12.0375 -0.675,-1.0125 -3.6,-3.0375 -2.8125,-2.025 -3.4875,-1.9125 1.575,6.3 2.3625,9.3375 1.35,10.575 1.2375,11.025 l 12.9375,1.0125 z m 27.1125,30.0375 q -4.05,7.425 -6.3,10.575 -3.375,4.8375 -4.6125,6.525 -1.125,1.6875 -2.925,3.6 -2.8125,2.925 -3.9375,2.925 0.1125,0 0.1125,-0.45 -3.7125,-3.15 -5.5125,-4.5 -4.95,-5.7375 -6.975,-8.1 l -4.275,-4.8375 q -1.0125,-0.7875 -1.0125,-1.4625 0,-0.9 1.8,-1.9125 4.5,-2.475 4.5,-6.075 l 0,-1.4625 q -0.225,-0.5625 -3.15,-0.5625 l -3.7125,0 0,-4.275 q 0.9,-4.05 1.575,-4.3875 0.675,-0.3375 3.375,0.225 2.7,0.45 3.2625,1.0125 2.1375,4.8375 4.8375,12.9375 0.5625,-1.125 0.5625,-1.6875 0,-0.675 -0.225,-1.9125 -0.1125,-1.2375 -0.1125,-1.6875 l -0.225,-3.6 -0.1125,-2.1375 q -0.1125,-2.025 -0.1125,-2.8125 l -0.1125,-1.8 q -0.1125,-1.8 -0.1125,-1.2375 -2.8125,-1.9125 -9.675,-1.6875 -0.7875,0 -1.2375,0 l -1.35,0 q -1.2375,0 -1.8,1.6875 -2.25,6.525 -2.25,10.9125 0,0.45 1.0125,3.15 4.275,0.225 6.4125,0.1125 -1.9125,4.8375 -20.7,12.0375 -13.5,5.175 -14.7375,5.5125 -4.8375,1.35 -8.55,1.35 -6.6375,0 -6.975,-0.225 1.2375,-1.35 2.475,-2.475 0.675,0 9.225,-7.875 2.925,-2.7 7.7625,-9 4.95,-6.4125 6.4125,-9.5625 -0.225,-1.9125 -0.5625,-2.3625 -4.1625,-0.3375 -12.6,4.3875 -0.3375,0.3375 -2.25,1.0125 -1.8,0.675 -2.25,0.5625 -0.1125,0 -0.225,-0.225 0,-0.45 0.7875,-1.6875 3.825,-5.9625 6.075,-8.55 7.7625,-9 11.3625,-9.9 l 4.275,-1.0125 q 1.35,-1.2375 1.125,-3.15 l -1.125,-10.125 q -3.0375,-10.4625 -5.9625,-13.5 -5.7375,-5.9625 -9.225,-7.0875 l -1.9125,-0.9 q 9,-2.1375 14.7375,-2.1375 9.5625,0 16.875,4.05 5.625,3.15 12.6,11.025 3.9375,4.5 9.1125,20.8125 4.95,15.6375 4.95,28.35 0,1.575 -0.1125,2.925 0.7875,-0.225 2.025,-3.825 0.5625,-1.4625 1.4625,-4.725 1.125,-2.25 3.375,-2.7 0.225,-0.1125 3.7125,-0.675 0.7875,-0.1125 3.375,-0.9 2.1375,-0.675 3.2625,-0.675 0.45,0 0.5625,0.1125 l -6.075,14.0625 z m -45.9,-18.9 q -0.45,-0.45 -0.7875,-0.45 -0.9,0 -1.125,3.2625 -0.3375,6.525 1.8,9.7875 0.675,0.9 3.375,2.925 -0.3375,-1.8 -0.5625,-2.7 -2.025,-7.875 -1.35,-11.3625 l -1.35,-1.4625 z" />
      <path
         id="path3387"
         style="font-style:normal;font-variant:normal;font-weight:normal;font-stretch:normal;font-size:112.5px;font-family:graffonti;-inkscape-font-specification:graffonti"
         d="m 546.22794,448.25686 0,-2.3625 q 0,-5.0625 -6.1875,-19.575 -6.4125,-15.075 -10.575,-17.55 -2.475,-1.4625 -7.0875,-3.375 -6.75,-2.025 -9.1125,-2.925 -2.3625,-1.0125 -8.55,-3.7125 -2.025,-1.0125 -8.4375,-4.1625 -1.2375,-0.7875 -3.9375,-2.25 0,1.8 2.1375,5.7375 l 1.35,3.6 q 0.9,1.6875 2.925,5.5125 1.575,2.7 1.575,4.6125 -0.225,1.575 -1.9125,3.9375 -2.1375,-0.225 -11.5875,1.0125 l -9.45,1.2375 q -0.3375,0 -1.0125,-0.9 l 0,-3.15 q 0,-4.3875 5.85,-17.1 5.85,-12.7125 5.85,-18.675 0,-7.3125 -14.175,-13.6125 -11.7,-5.175 -19.0125,-5.175 -3.9375,0 -6.975,2.1375 -1.575,1.125 -5.5125,5.5125 2.025,-0.675 3.825,-0.675 7.7625,0 12.0375,8.4375 3.4875,6.8625 3.4875,14.9625 0,5.85 -1.2375,17.6625 -1.2375,11.7 -1.2375,17.55 0,0.7875 0.45,5.7375 -2.025,1.6875 -5.85,5.85 -0.7875,4.1625 -0.675,5.2875 l -0.3375,4.1625 q 1.125,-0.7875 5.7375,-4.3875 3.6,-2.8125 4.1625,-2.8125 1.9125,0 4.8375,3.825 1.0125,1.2375 2.8125,2.25 7.5375,3.9375 11.3625,3.825 l 2.925,-0.1125 q -1.9125,-2.475 -4.725,-6.6375 -0.225,-0.45 -2.8125,-6.525 1.2375,-4.5 8.6625,-4.95 l 3.9375,-0.225 q 1.9125,-0.1125 6.75,-0.225 4.6125,-0.1125 6.1875,0.1125 13.95,2.025 27,9.45 l 15.1875,8.6625 1.35,0 z" />
      <path
         id="path3389"
         style="font-style:normal;font-variant:normal;font-weight:normal;font-stretch:normal;font-size:112.5px;font-family:graffonti;-inkscape-font-specification:graffonti"
         d="m 609.02403,409.21936 q -0.5625,2.3625 -1.575,8.1 -2.3625,13.5 -2.1375,16.2 -0.225,0.7875 -1.2375,1.8 -1.0125,0.9 -1.8,0.9 -2.1375,-1.0125 -5.7375,-2.475 -0.225,0 -11.3625,-3.15 8.325,-6.75 7.875,-10.8 -2.7,0.9 -15.75,4.3875 -10.125,2.7 -15.075,5.85 -5.625,3.7125 -10.575,11.8125 -4.3875,7.2 -6.4125,14.7375 1.125,-0.1125 3.15,-1.2375 3.6,-1.9125 4.725,-2.475 7.875,-3.375 10.6875,-4.3875 11.5875,-3.9375 19.125,-3.9375 7.5375,0 11.475,0.675 0.9,0.225 9.45,2.925 2.5875,0.7875 9,6.075 3.0375,4.5 5.0625,4.5 0.3375,0 0.675,-0.1125 l 33.525,-6.6375 q -18.225,-16.0875 -18.225,-37.35 0,-2.25 -0.1125,-1.8 0.3375,-1.35 2.7,-1.35 3.4875,0 10.4625,7.3125 0.45,-1.35 0.45,-4.1625 0,-2.25 -1.35,-7.3125 -1.35,-5.175 -2.475,-6.8625 -0.5625,-0.7875 -4.05,-1.6875 -3.4875,-1.0125 -3.7125,-1.2375 0,-3.6 3.2625,-11.25 3.2625,-7.65 3.2625,-11.25 0,-4.05 -9.3375,-10.575 -4.725,-3.2625 -8.8875,-5.85 -0.45,-0.5625 -1.6875,-0.1125 -1.4625,0.45 -1.35,1.575 0.1125,0.7875 0.7875,2.475 0.675,1.575 0.675,1.6875 0.5625,4.6125 -0.1125,9.225 -3.7125,24.6375 -13.8375,24.6375 -0.45,0 -1.35,0.1125 -0.9,0.1125 -1.35,0.1125 l -1.575,0 q -1.2375,0 -2.025,-1.6875 4.8375,-7.875 6.1875,-10.8 3.0375,-6.4125 3.0375,-11.8125 0,-4.725 -15.3,-10.4625 -13.5,-5.0625 -17.1,-5.0625 -0.9,-0.1125 -2.025,0.225 -0.7875,0.7875 4.1625,12.4875 2.3625,5.5125 2.925,6.8625 1.2375,2.475 1.9125,3.0375 l 0.9,0.675 q 0.9,0 2.025,1.575 1.2375,1.575 1.2375,2.5875 0,5.625 -9,15.525 -5.4,5.9625 -10.125,9.7875 1.9125,0.3375 10.0125,1.6875 10.4625,1.8 13.5,1.8 0.45,-0.45 4.6125,-3.15 3.0375,-1.9125 4.8375,-2.5875 0.7875,-0.225 5.5125,-2.1375 l -0.5625,2.3625 z" />
    </g>
  </g>
</svg>
