<?xml version="1.0" encoding="UTF-8" standalone="no"?>
<!-- Created with Inkscape (http://www.inkscape.org/) -->

<svg
   xmlns:dc="http://purl.org/dc/elements/1.1/"
   xmlns:cc="http://creativecommons.org/ns#"
   xmlns:rdf="http://www.w3.org/1999/02/22-rdf-syntax-ns#"
   xmlns:svg="http://www.w3.org/2000/svg"
   xmlns="http://www.w3.org/2000/svg"
   xmlns:sodipodi="http://sodipodi.sourceforge.net/DTD/sodipodi-0.dtd"
   xmlns:inkscape="http://www.inkscape.org/namespaces/inkscape"
   width="210mm"
   height="297mm"
   viewBox="0 0 210 297"
   version="1.1"
   id="svg8"
   inkscape:version="0.92.3 (2405546, 2018-03-11)"
   sodipodi:docname="freecad.svg">
  <defs
     id="defs2" />
  <sodipodi:namedview
     id="base"
     pagecolor="#ffffff"
     bordercolor="#666666"
     borderopacity="1.0"
     inkscape:pageopacity="0.0"
     inkscape:pageshadow="2"
     inkscape:zoom="0.98994949"
     inkscape:cx="534.31293"
     inkscape:cy="992.20425"
     inkscape:document-units="mm"
     inkscape:current-layer="flowRoot3713"
     showgrid="false"
     inkscape:window-width="1920"
     inkscape:window-height="1006"
     inkscape:window-x="0"
     inkscape:window-y="0"
     inkscape:window-maximized="1" />
  <metadata
     id="metadata5">
    <rdf:RDF>
      <cc:Work
         rdf:about="">
        <dc:format>image/svg+xml</dc:format>
        <dc:type
           rdf:resource="http://purl.org/dc/dcmitype/StillImage" />
        <dc:title></dc:title>
      </cc:Work>
    </rdf:RDF>
  </metadata>
  <g
     inkscape:label="Capa 1"
     inkscape:groupmode="layer"
     id="layer1">
    <g
       aria-label="FreeCAD"
       transform="matrix(0.12479304,0,0,0.17154285,-4.2783812,-58.223046)"
       style="font-style:normal;font-variant:normal;font-weight:normal;font-stretch:normal;font-size:40px;line-height:1.25;font-family:'Blue Plate Special NF';-inkscape-font-specification:'Blue Plate Special NF';letter-spacing:0px;word-spacing:0px;fill:#000000;fill-opacity:1;stroke:none"
       id="flowRoot3713">
      <path
         d="m -133.5578,299.74756 v -15.74399 h -33.984 v 62.016 h 15.744 v -9.984 h 22.08 v 41.856 h -22.08 v -9.98401 h -15.744 v 18.24 h 12.288 v 21.88801 h -45.12 v -21.88801 h 10.944 v -18.24 h -9.408 v -21.88799 h 9.408 v -62.016 h -10.944 v -21.88801 h 88.896 v 37.632 z"
         style="font-size:192px"
         id="path3721"
         inkscape:connector-curvature="0" />
      <path
         d="m -46.434799,319.13957 q -5.376,0 -10.176,3.264 -4.608,3.26399 -8.064,8.832 -3.456,5.376 -5.376,12.47999 -1.92,7.10401 -1.92,14.59201 v 49.92 H -102.4988 v -21.88801 h 8.640001 v -67.39199 h -8.640001 v -21.696 h 30.528001 v 9.216 q 11.52,-9.216 25.536,-9.216 h 3.456 v 21.888 z"
         style="font-size:192px"
         id="path3723"
         inkscape:connector-curvature="0" />
      <path
         d="m 38.261201,321.44357 q 0,8.448 -3.264,16.12799 -3.072,7.48801 -8.64,13.24801 -5.568,5.75999 -13.056,9.216 -7.4880004,3.264 -16.1280004,3.264 h -4.8 q 2.304,9.792 7.872,16.31999 5.568,6.528 12.4800004,6.528 v -11.904 h 21.888 v 33.79201 h -21.888 q -7.8720004,0 -14.9760004,-3.264 -6.912,-3.45601 -12.6719996,-9.40801 -5.76,-5.952 -9.792,-14.20799 -3.84,-8.256 -5.376,-17.856 h -10.752 v -22.08001 h 10.752 q 1.536,-9.408 5.376,-17.472 4.032,-8.25599 9.6,-14.20799 5.7599996,-6.144 12.8639996,-9.6 7.104,-3.45601 14.9760004,-3.45601 5.184,0 9.792,1.92 4.8,1.92001 8.256,5.37601 3.456,3.264 5.376,7.87199 2.112,4.60801 2.112,9.79201 z m -21.888,0.576 q 0,-3.648 -3.648,-3.648 -3.4560004,0 -6.7200004,1.72799 -3.072,1.72801 -5.76,4.80001 -2.688,3.072 -4.8,7.29599 -1.92,4.22401 -3.072,9.024 h 4.8 q 8.256,0 13.6320004,-5.37599 5.568,-5.568 5.568,-13.824 z"
         style="font-size:192px"
         id="path3725"
         inkscape:connector-curvature="0" />
      <path
         d="m 120.0112,321.44357 q 0,8.448 -3.264,16.12799 -3.072,7.48801 -8.64,13.24801 -5.568,5.75999 -13.055999,9.216 -7.488,3.264 -16.128,3.264 h -4.8 q 2.304,9.792 7.872,16.31999 5.568,6.528 12.48,6.528 v -11.904 H 116.3632 v 33.79201 H 94.475201 q -7.872,0 -14.976,-3.264 -6.912,-3.45601 -12.672,-9.40801 -5.76,-5.952 -9.792,-14.20799 -3.84,-8.256 -5.376,-17.856 h -10.752 v -22.08001 h 10.752 q 1.536,-9.408 5.376,-17.472 4.032,-8.25599 9.6,-14.20799 5.76,-6.144 12.864,-9.6 7.104,-3.45601 14.976,-3.45601 5.184,0 9.791999,1.92 4.8,1.92001 8.256,5.37601 3.456,3.264 5.376,7.87199 2.112,4.60801 2.112,9.79201 z m -21.887999,0.576 q 0,-3.648 -3.648,-3.648 -3.456,0 -6.72,1.72799 -3.072,1.72801 -5.76,4.80001 -2.688,3.072 -4.8,7.29599 -1.92,4.22401 -3.072,9.024 h 4.8 q 8.256,0 13.632,-5.37599 5.568,-5.568 5.568,-13.824 z"
         style="font-size:192px"
         id="path3727"
         inkscape:connector-curvature="0" />
      <path
         d="m 219.3442,399.97157 q -17.088,9.216 -32.256,9.216 -12.672,0 -23.616,-5.952 -10.752,-6.144 -18.816,-16.32 -7.872,-10.17601 -12.48,-23.424 -4.608,-13.24801 -4.608,-27.84001 0,-14.59199 4.608,-27.84 4.608,-13.24799 12.48,-23.424 8.064,-10.176 18.816,-16.128 10.944,-6.144 23.616,-6.144 h 27.072 v 39.168 h -21.888 v -17.27999 h -5.184 q -8.064,0 -14.976,4.416 -6.912,4.41599 -12.096,11.712 -4.992,7.104 -7.872,16.51199 -2.688,9.216 -2.688,19.008 0,9.79201 2.688,19.20001 2.88,9.216 7.872,16.51199 5.184,7.10401 12.096,11.52 6.912,4.41601 14.976,4.41601 4.608,0 10.368,-1.53601 v -29.568 h 21.888 z"
         style="font-size:192px"
         id="path3729"
         inkscape:connector-curvature="0" />
      <path
         d="m 301.4032,408.03557 v -36.096 h -39.168 v 36.096 h -32.64 v -21.88801 h 10.56 v -14.20799 h -10.944 v -21.88801 h 10.944 v -31.87199 q 0,-11.904 4.608,-22.46401 4.8,-10.55999 12.864,-18.43199 8.064,-8.064 18.624,-12.672 10.56,-4.8 22.272,-4.8 8.064,0 24.768,4.992 v 121.34399 h 13.44 v 21.88801 z m 0,-126.144 q -0.192,0 -0.768,0 -0.576,0 -2.112,-0.19201 -7.296,0 -14.016,2.88 -6.528,2.88 -11.52,7.87201 -4.992,4.992 -7.872,11.712 -2.88,6.52799 -2.88,14.016 v 31.87199 h 39.168 z"
         style="font-size:192px"
         id="path3731"
         inkscape:connector-curvature="0" />
      <path
         d="m 445.8592,335.07556 q 0,14.784 -5.568,28.03201 -5.376,13.248 -14.592,23.23199 -9.216,9.98401 -21.696,15.93601 -12.288,5.76 -26.112,5.76 h -32.064 v -21.88801 h 10.944 V 283.42757 h -10.944 v -21.31201 h 32.256 q 14.016,0 26.304,5.952 12.48,5.952 21.696,15.93601 9.216,9.984 14.4,23.232 5.376,13.24799 5.376,27.83999 z m -21.888,0 q 0,-9.98399 -3.648,-19.00799 -3.456,-9.216 -9.6,-16.128 -6.144,-7.10401 -14.4,-11.328 -8.256,-4.41601 -17.664,-5.184 v 102.71999 q 9.408,-0.192 17.664,-4.41599 8.256,-4.22401 14.4,-11.13601 6.144,-7.10399 9.6,-16.12799 3.648,-9.216 3.648,-19.39201 z"
         style="font-size:192px"
         id="path3733"
         inkscape:connector-curvature="0" />
    </g>
  </g>
</svg>
