<?xml version="1.0" encoding="UTF-8" standalone="no"?>
<svg
   xmlns:dc="http://purl.org/dc/elements/1.1/"
   xmlns:cc="http://creativecommons.org/ns#"
   xmlns:rdf="http://www.w3.org/1999/02/22-rdf-syntax-ns#"
   xmlns:svg="http://www.w3.org/2000/svg"
   xmlns="http://www.w3.org/2000/svg"
   id="svg8"
   version="1.1"
   viewBox="0 0 210 297"
   height="297mm"
   width="210mm">
  <defs
     id="defs2" />
  <metadata
     id="metadata5">
    <rdf:RDF>
      <cc:Work
         rdf:about="">
        <dc:format>image/svg+xml</dc:format>
        <dc:type
           rdf:resource="http://purl.org/dc/dcmitype/StillImage" />
        <dc:title></dc:title>
      </cc:Work>
    </rdf:RDF>
  </metadata>
  <g
     id="layer1">
    <g
       transform="translate(-61.610119,-96.761905)"
       id="text3715"
       style="font-style:normal;font-variant:normal;font-weight:normal;font-stretch:normal;font-size:10.58333302px;line-height:1.25;font-family:STEAK;-inkscape-font-specification:STEAK;letter-spacing:0px;word-spacing:0px;fill:#000000;fill-opacity:1;stroke:none;stroke-width:0.26458332"
       aria-label="I           YOU">
      <path
         id="path3721"
         style="font-style:normal;font-variant:normal;font-weight:normal;font-stretch:normal;font-family:'Joy Multiplication';-inkscape-font-specification:'Joy Multiplication';stroke-width:0.26458332"
         d="m 43.606051,102.43676 v -7.2347 h 1.550293 v 7.2347 z" />
      <path
         id="path3723"
         style="font-style:normal;font-variant:normal;font-weight:normal;font-stretch:normal;font-family:'Joy Multiplication';-inkscape-font-specification:'Joy Multiplication';stroke-width:0.26458332"
         d="m 78.942393,99.051954 v 3.384806 H 77.3921 V 99.051954 L 74.834117,95.20206 h 1.860351 l 1.472778,2.216919 1.472779,-2.216919 h 1.860351 z" />
      <path
         id="path3725"
         style="font-style:normal;font-variant:normal;font-weight:normal;font-stretch:normal;font-family:'Joy Multiplication';-inkscape-font-specification:'Joy Multiplication';stroke-width:0.26458332"
         d="m 85.918712,100.88647 q 0.516765,0 0.516765,-0.51677 v -3.100583 q 0,-0.516764 -0.516765,-0.516764 h -2.067057 q -0.516764,0 -0.516764,0.516764 v 3.100583 q 0,0.51677 0.516764,0.51677 z m 2.067058,-0.51677 q 0,2.06706 -2.067058,2.06706 h -2.067057 q -2.067057,0 -2.067057,-2.06706 v -3.100583 q 0,-2.067057 2.067057,-2.067057 h 2.067057 q 2.067058,0 2.067058,2.067057 z" />
      <path
         id="path3727"
         style="font-style:normal;font-variant:normal;font-weight:normal;font-stretch:normal;font-family:'Joy Multiplication';-inkscape-font-specification:'Joy Multiplication';stroke-width:0.26458332"
         d="m 89.019297,100.3697 v -5.16764 h 1.550293 v 5.16764 q 0,0.51677 0.516764,0.51677 h 2.067058 q 0.516764,0 0.516764,-0.51677 v -5.16764 h 1.550293 v 5.16764 q 0,2.06706 -2.067057,2.06706 h -2.067058 q -2.067057,0 -2.067057,-2.06706 z" />
    </g>
    <path
       id="path3717"
       d="M -0.69511008,11.026565 C -4.1761061,9.9775752 -8.3943631,6.4634952 -9.5580791,4.0454752 -12.844058,-3.1148528 -8.3103631,-11.650169 -0.21296508,-0.94714281 8.0793679,-11.720709 13.066959,-1.8168728 9.4084829,3.6634752 7.4871569,6.5416052 3.1877159,10.288415 -0.69511008,11.026565 Z"
       style="fill:none;stroke:#000000;stroke-width:0.15013406px;stroke-linecap:butt;stroke-linejoin:miter;stroke-opacity:1" />
  </g>
</svg>
